<svg id="logo-ynotyout" xmlns="http://www.w3.org/2000/svg" viewBox="0 0 36 36" width="128px" height="128px">
  <title>logo-ynotyout-solid-md</title>
  <circle cx="18" cy="18" r="16" style="fill: #093C5C"/>
  <g>
    <g>
      <path d="M16.0643,16.9091V11.572c0-.28-.1566-.4363-.47-.4363a.4157.4157,0,0,0-.47.4363v5.3371h-1.6V11.46a1.3393,1.3393,0,0,1,.1566-.66,1.1384,1.1384,0,0,1,.4364-.4252,1.9472,1.9472,0,0,1,.6489-.2238,5.0348,5.0348,0,0,1,.8168-.0671,4.8984,4.8984,0,0,1,.8056.0671,2.2589,2.2589,0,0,1,.649.235,1.2237,1.2237,0,0,1,.4363.4252,1.2438,1.2438,0,0,1,.1567.6713V16.92l-1.5665-.0112Z" style="fill: #fff"/>
      <path d="M9.4294,25.8713V23.32L7.8517,19.0685H9.4294l.7832,2.9651.7832-2.9651h1.5776L10.9958,23.32v2.551Z" style="fill: #fff"/>
      <path d="M25.2951,16.9091V11.27l-1.2867-.1454V10.0727h4.1622v1.0518l-1.2867.1454v5.6392Z" style="fill: #fff"/>
    </g>
    <path d="M22.9119,15.5441a1.2227,1.2227,0,0,1-.1567.6377,1.1938,1.1938,0,0,1-.4363.414,2.2341,2.2341,0,0,1-.649.2238,5.0006,5.0006,0,0,1-.8056.0671A4.7656,4.7656,0,0,1,20.07,16.82a2.2345,2.2345,0,0,1-.6489-.2238,1.2883,1.2883,0,0,1-.4364-.414,1.2369,1.2369,0,0,1-.1566-.6489V11.4266a1.2952,1.2952,0,0,1,.1566-.649,1.195,1.195,0,0,1,.4364-.414A1.8626,1.8626,0,0,1,20.07,10.14a4.7953,4.7953,0,0,1,1.6,0,2.231,2.231,0,0,1,.649.2237,1.1947,1.1947,0,0,1,.4363.414,1.2231,1.2231,0,0,1,.1567.6378v4.1287Zm-2.5063-.1567a.4712.4712,0,0,0,.94,0V11.5608a.4712.4712,0,0,0-.94,0Z" style="fill: #fff"/>
    <path d="M9.407,16.8755v-2.551L7.8294,10.0727H9.407l.7832,2.9651.7832-2.9651h1.5777l-1.5777,4.2518v2.551Z" style="fill: #fff"/>
    <path d="M25.2951,25.9049V20.2657L24.0084,20.12V19.0685h4.1622V20.12l-1.2867.1454v5.6392Z" style="fill: #fff"/>
    <path d="M22.9231,24.551a1.34,1.34,0,0,1-.1567.66,1.1381,1.1381,0,0,1-.4363.4252,1.9445,1.9445,0,0,1-.649.2237,5.0219,5.0219,0,0,1-.8168.0672,4.8885,4.8885,0,0,1-.8056-.0672,2.2562,2.2562,0,0,1-.6489-.2349,1.224,1.224,0,0,1-.4364-.4252,1.2438,1.2438,0,0,1-.1566-.6713V19.0909h1.5776v5.3483c0,.28.1567.4363.47.4363a.4157.4157,0,0,0,.47-.4363V19.1021h1.5888" style="fill: #fff"/>
    <path d="M13.5692,20.3888a1.2234,1.2234,0,0,1,.1567-.6378,1.1944,1.1944,0,0,1,.4363-.4139,2.2312,2.2312,0,0,1,.649-.2238,4.9892,4.9892,0,0,1,.8056-.0671,4.755,4.755,0,0,1,.7944.0671,2.2306,2.2306,0,0,1,.6489.2238,1.2881,1.2881,0,0,1,.4364.4139,1.2376,1.2376,0,0,1,.1566.649v4.0951a1.2958,1.2958,0,0,1-.1566.649,1.1094,1.1094,0,0,1-.4364.4139,1.8627,1.8627,0,0,1-.6489.2238,4.7953,4.7953,0,0,1-1.6,0,2.2312,2.2312,0,0,1-.649-.2238,1.1944,1.1944,0,0,1-.4363-.4139,1.2234,1.2234,0,0,1-.1567-.6378V20.3888Zm2.5063.1567a.4712.4712,0,0,0-.94,0V24.372a.4712.4712,0,0,0,.94,0Z" style="fill: #fff"/>
  </g>
</svg>
