<?xml version="1.0" encoding="utf-8"?>
<svg version="1.1" id="logo-ynotyout" title="logo-ynotyout" xmlns="http://www.w3.org/2000/svg" xmlns:xlink="http://www.w3.org/1999/xlink" x="0px" y="0px"
	 viewBox="0 0 640 320" style="enable-background:new 0 0 640 320;" width="64px" height="64px" xml:space="preserve">
<style type="text/css">
	.st0{fill:#333030;}
	.st1{fill:#fff;}
</style>
<circle class="st0" cx="320" cy="160" r="143"/>
<g>
	<g>
		<path class="st1" d="M302.7,150.2v-47.7c0-2.5-1.4-3.9-4.2-3.9c-2.7,0-4.2,1.5-4.2,3.9v47.7h-14.3v-48.7c0-2.3,0.5-4.3,1.4-5.9
			c0.9-1.6,2.3-2.9,3.9-3.8c1.8-1,3.8-1.7,5.8-2c2.4-0.4,4.9-0.6,7.3-0.6c2.4,0,4.8,0.2,7.2,0.6c2,0.4,4,1.1,5.8,2.1
			c1.6,0.9,3,2.3,3.9,3.8c1,1.6,1.4,3.6,1.4,6v48.6L302.7,150.2L302.7,150.2L302.7,150.2z"/>
		<path class="st1" d="M243.4,230.3v-22.8l-14.1-38h14.1l7,26.5l7-26.5h14.1l-14.1,38v22.8H243.4z"/>
		<path class="st1" d="M385.2,150.2V99.8l-11.5-1.3v-9.4h37.2v9.4l-11.5,1.3v50.4H385.2z"/>
	</g>
	<path class="st1" d="M363.9,138c0,2.3-0.5,4.2-1.4,5.7c-0.9,1.5-2.3,2.8-3.9,3.7c-1.8,1-3.8,1.6-5.8,2c-2.4,0.4-4.9,0.6-7.2,0.6
		s-4.8-0.2-7.1-0.6c-2-0.4-4-1-5.8-2c-1.6-0.9-2.9-2.2-3.9-3.7c-0.9-1.5-1.4-3.4-1.4-5.8v-36.7c0-2.3,0.5-4.2,1.4-5.8
		c0.9-1.5,2.3-2.8,3.9-3.7c1.8-1,3.7-1.7,5.8-2c2.3-0.4,4.7-0.6,7.1-0.6c2.5,0,4.9,0.2,7.2,0.6c2,0.4,4,1,5.8,2
		c1.6,0.9,3,2.2,3.9,3.7c0.9,1.5,1.4,3.4,1.4,5.7L363.9,138L363.9,138z M341.5,136.6c0,2.4,1.4,3.9,4.2,3.9s4.2-1.5,4.2-3.9v-34.2
		c0-2.4-1.4-3.9-4.2-3.9s-4.2,1.5-4.2,3.9V136.6z"/>
	<path class="st1" d="M243.2,149.9v-22.8l-14.1-38h14.1l7,26.5l7-26.5h14.1l-14.1,38v22.8H243.2z"/>
	<path class="st1" d="M385.2,230.6v-50.4l-11.5-1.3v-9.4h37.2v9.4l-11.5,1.3v50.4H385.2z"/>
	<path class="st1" d="M364,218.5c0,2.3-0.5,4.3-1.4,5.9s-2.3,2.9-3.9,3.8c-1.8,1-3.8,1.7-5.8,2c-2.4,0.4-4.9,0.6-7.3,0.6
		c-2.4,0-4.8-0.2-7.2-0.6c-2-0.4-4-1.1-5.8-2.1c-1.6-0.9-3-2.3-3.9-3.8c-1-1.6-1.4-3.6-1.4-6v-48.6h14.1v0.1v47.7
		c0,2.5,1.4,3.9,4.2,3.9c2.7,0,4.2-1.5,4.2-3.9v-47.7H364"/>
	<path class="st1" d="M280.4,181.3c0-2.3,0.5-4.2,1.4-5.7c0.9-1.5,2.3-2.8,3.9-3.7c1.8-1,3.8-1.6,5.8-2c2.4-0.4,4.9-0.6,7.2-0.6
		s4.8,0.2,7.1,0.6c2,0.4,4,1,5.8,2c1.6,0.9,2.9,2.2,3.9,3.7c0.9,1.5,1.4,3.4,1.4,5.8V218c0,2.3-0.5,4.2-1.4,5.8s-2.3,2.8-3.9,3.7
		c-1.8,1-3.7,1.7-5.8,2c-2.3,0.4-4.7,0.6-7.1,0.6c-2.5,0-4.9-0.2-7.2-0.6c-2-0.4-4-1-5.8-2c-1.6-0.9-3-2.2-3.9-3.7s-1.4-3.4-1.4-5.7
		L280.4,181.3L280.4,181.3z M302.8,182.7c0-2.4-1.4-3.9-4.2-3.9s-4.2,1.5-4.2,3.9v34.2c0,2.4,1.4,3.9,4.2,3.9s4.2-1.5,4.2-3.9V182.7
		z"/>
</g>
</svg>
